<svg xmlns="http://www.w3.org/2000/svg" viewBox="0 0 36 36"><circle fill="#3F917C" cx="18" cy="18" r="18"/><path fill="#FFF" d="M17.601 25.526a1.503 1.503 0 0 1-1.492-1.509c0-.808.683-1.491 1.492-1.491.832 0 1.509.669 1.509 1.491a1.51 1.51 0 0 1-1.509 1.509zm.039-3.61c-.761 0-1.38-.574-1.38-1.28 0-2.171 1.338-3.257 2.412-4.128.799-.648 1.288-1.074 1.288-1.653 0-.783-.269-1.681-2.36-1.681-.855 0-1.713.218-2.295.583a1.55 1.55 0 0 1-.766.237c-.717 0-1.3-.583-1.3-1.3 0-.487.249-.886.739-1.186 1.143-.714 2.31-1.034 3.781-1.034 3.038 0 5.001 1.68 5.001 4.281 0 1.93-1.229 2.91-2.215 3.696-.946.754-1.526 1.264-1.526 2.185.001.706-.619 1.28-1.379 1.28z"/></svg>